<?xml version="1.0" encoding="UTF-8" standalone="no"?>
<!DOCTYPE svg PUBLIC "-//W3C//DTD SVG 1.1//EN" "http://www.w3.org/Graphics/SVG/1.1/DTD/svg11.dtd">
<svg width="100%" height="100%" viewBox="0 0 64 64" version="1.1" xmlns="http://www.w3.org/2000/svg" xmlns:xlink="http://www.w3.org/1999/xlink" xml:space="preserve" xmlns:serif="http://www.serif.com/" style="fill-rule:evenodd;clip-rule:evenodd;stroke-miterlimit:1.5;">
    <path d="M2,60.979L2,9.391C2,8.534 2.696,7.838 3.553,7.838C4.396,7.838 5.084,8.512 5.105,9.351L5.105,9.391L5.105,60.979L2,60.979ZM5.493,60.979L5.493,16.766C5.493,15.909 6.189,15.213 7.046,15.213C7.903,15.213 8.599,15.909 8.599,16.766L8.599,60.979L5.493,60.979ZM8.987,60.979L8.987,22.74C8.987,21.883 9.683,21.187 10.539,21.187C11.396,21.187 12.092,21.883 12.092,22.74L12.092,60.979L8.987,60.979ZM12.48,60.979L12.48,27.578C12.48,26.721 13.176,26.026 14.033,26.026C14.89,26.026 15.586,26.721 15.586,27.578L15.586,60.979L12.48,60.979ZM15.974,60.979L15.974,31.498C15.974,30.641 16.669,29.945 17.526,29.945C18.383,29.945 19.079,30.641 19.079,31.498L19.079,60.979L15.974,60.979ZM19.467,60.979L19.467,34.672C19.467,33.816 20.163,33.12 21.02,33.12C21.877,33.12 22.572,33.816 22.572,34.672L22.572,60.979L19.467,60.979ZM22.961,60.979L22.961,37.244C22.961,36.387 23.656,35.691 24.513,35.691C25.37,35.691 26.066,36.387 26.066,37.244L26.066,60.979L22.961,60.979ZM26.454,60.979L26.454,39.327C26.454,38.47 27.15,37.774 28.007,37.774C28.85,37.774 29.537,38.448 29.559,39.287L29.559,39.327L29.559,60.979L26.454,60.979ZM29.947,60.979L29.947,41.014C29.947,40.157 30.643,39.461 31.5,39.461C32.357,39.461 33.053,40.157 33.053,41.014L33.053,60.979L29.947,60.979ZM33.441,60.979L33.441,42.381C33.441,41.524 34.137,40.828 34.993,40.828C35.837,40.828 36.524,41.502 36.546,42.341L36.546,42.381L36.546,60.979L33.441,60.979ZM36.934,60.979L36.934,43.488C36.934,42.631 37.63,41.935 38.487,41.935C39.344,41.935 40.039,42.631 40.039,43.488L40.039,60.979L36.934,60.979ZM40.428,60.979L40.428,44.384C40.428,43.527 41.123,42.832 41.98,42.832C42.837,42.832 43.533,43.527 43.533,44.384L43.533,60.979L40.428,60.979ZM43.921,60.979L43.921,45.11C43.921,44.254 44.617,43.558 45.474,43.558C46.331,43.558 47.026,44.254 47.026,45.11L47.026,60.979L43.921,60.979ZM47.414,60.979L47.414,45.699C47.414,44.842 48.11,44.146 48.967,44.146C49.824,44.146 50.52,44.842 50.52,45.699L50.52,60.979L47.414,60.979ZM50.908,60.979L50.908,46.175C50.908,45.318 51.604,44.623 52.461,44.623C53.317,44.623 54.013,45.318 54.013,46.175L54.013,60.979L50.908,60.979ZM54.401,60.979L54.401,46.561C54.401,45.704 55.097,45.009 55.954,45.009C56.798,45.009 57.485,45.683 57.506,46.521L57.507,46.561L57.507,60.979L54.401,60.979ZM57.895,60.979L57.895,46.874C57.895,46.017 58.59,45.321 59.447,45.321C60.304,45.321 61,46.017 61,46.874L61,60.979L57.895,60.979Z" style="fill:rgb(0,170,102);"/>
    <circle id="plus-circle" cx="43" cy="20" r="16" style="fill:white;stroke:black;stroke-width:1px;"/>
    <path id="plus-sign" d="M42.102,25.118L42.102,20.872L37.887,20.872L37.887,19.097L42.102,19.097L42.102,14.882L43.898,14.882L43.898,19.097L48.113,19.097L48.113,20.872L43.898,20.872L43.898,25.118L42.102,25.118Z" style="fill-rule:nonzero;"/>
    <path id="right-arrow" d="M27,20L19,23L19,17L27,20Z"/>
</svg>
